<?xml version="1.0" encoding="utf-8"?>
<svg height="75" width="52" xmlns:xlink="http://www.w3.org/1999/xlink" xmlns="http://www.w3.org/2000/svg" viewBox="0 0 52 75">
    <path fill="#99ca3b" fill-rule="evenodd" d="M 0.27 70 C 0.19 69.9 0.15 69.79 0.15 69.66 C 0.15 69.5 0.21 69.36 0.32 69.25 C 0.43 69.14 0.57 69.08 0.73 69.08 C 0.93 69.08 1.1 69.17 1.22 69.35 C 1.27 69.44 1.34 69.53 1.42 69.61 C 1.83 70.09 2.35 70.36 2.99 70.42 C 3.62 70.46 4.18 70.28 4.66 69.88 C 5.15 69.47 5.41 68.95 5.47 68.32 C 5.52 67.68 5.34 67.13 4.93 66.65 C 4.52 66.17 4 65.9 3.36 65.85 C 2.57 65.78 1.92 65.45 1.4 64.84 C 0.89 64.24 0.67 63.55 0.73 62.75 C 0.8 61.97 1.13 61.32 1.74 60.81 C 2.28 60.34 2.9 60.11 3.6 60.11 C 4.44 60.11 5.17 60.45 5.79 61.14 C 5.9 61.26 5.99 61.39 6.07 61.52 C 6.13 61.61 6.16 61.72 6.16 61.83 C 6.16 61.99 6.1 62.12 5.99 62.23 C 5.87 62.35 5.74 62.4 5.58 62.4 C 5.4 62.4 5.27 62.35 5.18 62.23 C 5.09 62.12 5 62 4.91 61.88 C 4.6 61.52 4.21 61.32 3.74 61.28 C 3.27 61.24 2.85 61.38 2.48 61.68 C 2.12 61.99 1.92 62.38 1.88 62.85 C 1.84 63.32 1.98 63.74 2.29 64.1 C 2.59 64.46 2.98 64.66 3.45 64.7 C 4.41 64.78 5.19 65.18 5.81 65.9 C 6.35 66.54 6.62 67.27 6.62 68.08 C 6.62 68.19 6.62 68.3 6.61 68.41 C 6.53 69.36 6.13 70.13 5.41 70.75 C 4.76 71.29 4.03 71.57 3.2 71.57 C 2.17 71.57 1.28 71.16 0.54 70.35 C 0.44 70.24 0.35 70.13 0.27 70 L 0.27 70 Z M 11.8 64.69 C 11 64.69 10.33 64.97 9.77 65.53 C 9.2 66.09 8.92 66.77 8.92 67.56 C 8.92 68.35 9.2 69.03 9.77 69.59 C 10.33 70.14 11 70.42 11.8 70.42 C 12.6 70.42 13.27 70.14 13.83 69.59 C 14.4 69.03 14.68 68.35 14.68 67.56 C 14.68 66.77 14.4 66.09 13.83 65.53 C 13.27 64.97 12.6 64.69 11.8 64.69 L 11.8 64.69 Z M 14.68 70.37 C 13.87 71.17 12.91 71.57 11.8 71.57 C 10.69 71.57 9.74 71.18 8.95 70.39 C 8.17 69.61 7.77 68.67 7.77 67.56 C 7.77 66.45 8.17 65.51 8.95 64.72 C 9.74 63.94 10.69 63.55 11.8 63.55 C 12.91 63.55 13.86 63.94 14.65 64.72 C 15.43 65.51 15.83 66.45 15.83 67.56 L 15.83 71 C 15.83 71.15 15.77 71.29 15.66 71.4 C 15.54 71.51 15.41 71.57 15.25 71.57 C 15.09 71.57 14.96 71.51 14.84 71.4 C 14.73 71.29 14.68 71.15 14.68 71 L 14.68 70.37 Z M 18.13 67.56 C 18.13 68.35 18.41 69.03 18.97 69.59 C 19.53 70.14 20.21 70.42 21 70.42 C 21.8 70.42 22.48 70.14 23.04 69.59 C 23.6 69.03 23.88 68.35 23.88 67.56 C 23.88 66.77 23.6 66.09 23.04 65.53 C 22.48 64.97 21.8 64.69 21 64.69 C 20.21 64.69 19.53 64.97 18.97 65.53 C 18.41 66.09 18.13 66.77 18.13 67.56 L 18.13 67.56 Z M 18.13 74.43 C 18.13 74.59 18.07 74.73 17.96 74.84 C 17.85 74.95 17.71 75.01 17.55 75.01 C 17.39 75.01 17.26 74.95 17.15 74.84 C 17.03 74.73 16.98 74.59 16.98 74.43 L 16.98 67.56 C 16.98 66.45 17.37 65.51 18.16 64.72 C 18.94 63.94 19.89 63.55 21 63.55 C 22.11 63.55 23.06 63.94 23.85 64.72 C 24.64 65.51 25.03 66.45 25.03 67.56 C 25.03 68.67 24.64 69.61 23.85 70.39 C 23.06 71.18 22.11 71.57 21 71.57 C 19.89 71.57 18.94 71.18 18.16 70.39 C 18.15 70.39 18.14 70.38 18.13 70.37 L 18.13 74.43 Z M 26.18 60.68 C 26.18 60.53 26.24 60.39 26.35 60.28 C 26.46 60.17 26.6 60.11 26.75 60.11 C 26.91 60.11 27.05 60.17 27.16 60.28 C 27.27 60.39 27.33 60.53 27.33 60.68 L 27.33 70.42 L 27.9 70.42 C 28.06 70.42 28.2 70.48 28.31 70.59 C 28.42 70.7 28.48 70.84 28.48 71 C 28.48 71.15 28.42 71.29 28.31 71.4 C 28.2 71.51 28.06 71.57 27.9 71.57 L 26.75 71.57 C 26.6 71.57 26.46 71.51 26.35 71.4 C 26.24 71.29 26.18 71.15 26.18 71 L 26.18 60.68 Z M 31.5 61.83 C 31.5 62.03 31.43 62.19 31.29 62.33 C 31.15 62.48 30.98 62.55 30.78 62.55 C 30.58 62.55 30.41 62.48 30.27 62.33 C 30.13 62.19 30.06 62.03 30.06 61.83 C 30.06 61.63 30.13 61.47 30.27 61.32 C 30.41 61.18 30.58 61.11 30.78 61.11 C 30.98 61.11 31.15 61.18 31.29 61.32 C 31.43 61.47 31.5 61.63 31.5 61.83 L 31.5 61.83 Z M 30.21 64.12 C 30.21 63.96 30.26 63.83 30.37 63.72 C 30.49 63.6 30.62 63.55 30.78 63.55 C 30.94 63.55 31.07 63.6 31.19 63.72 C 31.3 63.83 31.36 63.96 31.36 64.12 L 31.36 71 C 31.36 71.15 31.3 71.29 31.19 71.4 C 31.07 71.51 30.94 71.57 30.78 71.57 C 30.62 71.57 30.49 71.51 30.37 71.4 C 30.26 71.29 30.21 71.15 30.21 71 L 30.21 64.12 Z M 33.08 64.12 C 33.08 63.96 33.14 63.83 33.25 63.72 C 33.36 63.6 33.5 63.55 33.66 63.55 C 33.81 63.55 33.95 63.6 34.06 63.72 C 34.17 63.83 34.23 63.96 34.23 64.12 L 34.23 64.59 C 34.95 63.89 35.81 63.55 36.82 63.55 C 37.85 63.55 38.73 63.91 39.46 64.64 C 40.19 65.37 40.56 66.25 40.56 67.27 L 40.56 71 C 40.56 71.15 40.5 71.29 40.39 71.4 C 40.28 71.51 40.14 71.57 39.98 71.57 C 39.82 71.57 39.69 71.51 39.58 71.4 C 39.46 71.29 39.41 71.15 39.41 71 L 39.41 67.27 C 39.41 66.56 39.15 65.95 38.65 65.45 C 38.14 64.95 37.53 64.69 36.82 64.69 C 36.11 64.69 35.5 64.95 34.99 65.45 C 34.48 65.95 34.23 66.56 34.23 67.27 L 34.23 71 C 34.23 71.15 34.17 71.29 34.06 71.4 C 33.95 71.51 33.81 71.57 33.66 71.57 C 33.5 71.57 33.36 71.51 33.25 71.4 C 33.14 71.29 33.08 71.15 33.08 71 L 33.08 64.12 Z M 45.73 64.69 C 44.94 64.69 44.26 64.97 43.7 65.53 C 43.14 66.09 42.86 66.77 42.86 67.56 C 42.86 68.35 43.14 69.03 43.7 69.59 C 44.26 70.14 44.94 70.42 45.73 70.42 C 46.53 70.42 47.21 70.14 47.77 69.59 C 48.33 69.03 48.61 68.35 48.61 67.56 C 48.61 66.77 48.33 66.09 47.77 65.53 C 47.21 64.97 46.53 64.69 45.73 64.69 L 45.73 64.69 Z M 48.61 70.37 C 48.6 70.38 48.59 70.39 48.58 70.39 C 47.8 71.18 46.85 71.57 45.73 71.57 C 44.62 71.57 43.67 71.18 42.89 70.39 C 42.1 69.61 41.71 68.67 41.71 67.56 C 41.71 66.45 42.1 65.51 42.89 64.72 C 43.67 63.94 44.62 63.55 45.73 63.55 C 46.85 63.55 47.8 63.94 48.58 64.72 C 49.37 65.51 49.76 66.45 49.76 67.56 L 49.76 71.57 C 49.76 72.4 49.46 73.13 48.85 73.75 C 48.01 74.59 46.99 75.01 45.8 75.01 C 44.61 75.01 43.59 74.59 42.75 73.75 C 42.44 73.44 42.19 73.11 41.99 72.75 C 41.93 72.67 41.9 72.56 41.9 72.45 C 41.9 72.29 41.96 72.16 42.07 72.05 C 42.18 71.93 42.32 71.88 42.48 71.88 C 42.64 71.88 42.77 71.93 42.89 72.04 C 42.94 72.09 42.98 72.15 43.01 72.21 C 43.15 72.47 43.34 72.71 43.56 72.94 C 44.18 73.55 44.93 73.86 45.8 73.86 C 46.67 73.86 47.42 73.55 48.03 72.94 C 48.42 72.48 48.61 72.02 48.61 71.57 L 48.61 70.37 Z M 48.61 70.37" />
    <path fill="#99ca3b" fill-rule="evenodd" d="M 17.94 7.56 C 17.94 3.85 20.96 0.83 24.67 0.83 L 24.67 0.83 C 28.38 0.83 31.39 3.84 31.39 7.56 L 31.39 45.57 C 31.39 49.29 28.37 52.3 24.67 52.3 L 24.67 52.3 C 20.96 52.3 17.94 49.29 17.94 45.57 L 17.94 7.56 Z M 17.94 7.56" />
    <path fill="#99ca3b" fill-rule="evenodd" d="M 51.56 1.62 L 51.56 4.23 C 51.56 12.34 44.97 18.9 36.84 18.9 L 34.16 18.9 L 34.16 16.29 C 34.16 8.19 40.75 1.62 48.89 1.62 L 51.56 1.62 L 51.56 1.62 Z M 51.56 1.62" />
</svg>
