<?xml version="1.0" encoding="utf-8"?>
<!-- Generator: Avocode 2.6.0 - http://avocode.com -->
<svg height="63" width="63" xmlns:xlink="http://www.w3.org/1999/xlink" xmlns="http://www.w3.org/2000/svg" viewBox="0 0 63 63">
    <path stroke-linejoin="miter" stroke-linecap="butt" stroke-width="0.5" stroke="#979797" fill="#ffffff" fill-rule="evenodd" d="M 12.02 18.68 C 12.02 15.36 14.71 12.67 18.03 12.67 L 56.01 12.67 C 59.33 12.67 62.02 15.36 62.02 18.68 L 62.02 56.66 C 62.02 59.98 59.33 62.67 56.01 62.67 L 18.03 62.67 C 14.71 62.67 12.02 59.98 12.02 56.66 L 12.02 18.68 Z M 12.02 18.68" />
    <path stroke-linejoin="miter" stroke-linecap="butt" stroke-width="0.5" stroke="#979797" fill="#ffffff" fill-rule="evenodd" d="M 6.02 12.68 C 6.02 9.36 8.71 6.67 12.03 6.67 L 50.01 6.67 C 53.33 6.67 56.02 9.36 56.02 12.68 L 56.02 50.66 C 56.02 53.98 53.33 56.67 50.01 56.67 L 12.03 56.67 C 8.71 56.67 6.02 53.98 6.02 50.66 L 6.02 12.68 Z M 6.02 12.68" />
    <path stroke-linejoin="miter" stroke-linecap="butt" stroke-width="0.5" stroke="#979797" fill="#ffffff" fill-rule="evenodd" d="M 0.02 6.68 C 0.02 3.36 2.71 0.67 6.03 0.67 L 44.01 0.67 C 47.33 0.67 50.02 3.36 50.02 6.68 L 50.02 44.66 C 50.02 47.98 47.33 50.67 44.01 50.67 L 6.03 50.67 C 2.71 50.67 0.02 47.98 0.02 44.66 L 0.02 6.68 Z M 0.02 6.68" />
    <path fill="#d9d9d9" fill-rule="evenodd" d="M 44.73 42.72 L 44.73 42.84 L 7.18 42.84 L 7.18 42.67 C 7.38 41.78 7.65 40.61 7.84 39.61 C 8.02 38.68 8.02 37.23 8.38 36.5 C 8.62 36.01 9.57 35.63 10.3 35.36 C 12.03 34.72 13.06 34.28 14.68 33.63 C 15.47 33.31 16.34 33.11 16.96 32.79 C 17.26 32.63 17.54 32.3 17.86 32.13 C 18.25 31.92 18.6 31.8 18.88 31.59 C 19.56 31.1 19.61 30.52 20.56 30.27 C 20.72 29.66 20.85 29.01 21.22 28.6 C 20.98 28.23 21.16 27.79 21.04 27.4 C 20.93 27.07 20.55 26.81 20.44 26.44 C 20.31 26.06 20.34 25.61 20.2 25.25 C 20.01 24.8 19.57 24.51 19.36 24.05 C 18.99 23.26 18.33 21.34 18.52 20.28 C 18.58 19.9 18.71 19.95 18.82 19.62 C 18.13 17.74 18.23 14.82 18.88 12.86 C 19.48 11.03 21.15 9.91 23.31 9.68 C 24.82 9.53 26.73 9.33 28.17 9.74 C 29.38 10.09 31.33 11.48 31.89 12.56 C 32.84 14.38 32.66 17.53 32.31 19.92 C 32.21 20.13 32.88 19.6 32.85 20.04 C 32.85 21.47 32.62 22.7 32.13 23.87 C 31.91 24.39 31.44 24.76 31.23 25.25 C 31.08 25.6 31.08 26.07 30.93 26.5 C 30.78 26.95 30.4 27.26 30.33 27.64 C 30.14 28.73 30.84 29.29 30.99 30.33 C 31.62 30.43 31.87 31.01 32.25 31.35 C 32.65 31.71 33.11 31.97 33.63 32.25 C 35.65 33.35 37.92 34.04 40.17 34.94 C 41.07 35.31 42.79 35.71 43.17 36.56 C 43.35 36.96 43.4 37.54 43.53 38.06 C 43.91 39.59 44.3 41.41 44.73 42.72" />
</svg>